<svg width="66" height="90" viewBox="0 0 66 90" fill="none" xmlns="http://www.w3.org/2000/svg">
<path d="M33 0.755188C26.4732 0.755188 20.093 3.36468 14.6662 8.25366C9.23937 13.1426 5.00968 20.0916 2.51199 28.2216C0.0142983 36.3517 -0.639212 45.2978 0.6341 53.9287C1.90741 62.5596 5.05036 70.4875 9.66549 76.71C14.2806 82.9325 20.1607 87.1701 26.562 88.8869C32.9634 90.6036 39.5986 89.7225 45.6286 86.3549C51.6585 82.9873 56.8124 77.2845 60.4385 69.9676C64.0646 62.6508 66 54.0484 66 45.2485C65.99 33.4523 62.51 22.143 56.3235 13.8018C50.137 5.46064 41.7491 0.768646 33 0.755188ZM51.8383 73.6161C51.7913 69.4475 50.5316 65.4707 48.3307 62.5424C46.1297 59.614 43.1636 57.9687 40.0714 57.9609H25.9286C22.8364 57.9687 19.8703 59.614 17.6694 62.5424C15.4684 65.4707 14.2087 69.4475 14.1617 73.6161C9.8872 68.47 6.87281 61.6947 5.51769 54.1874C4.16258 46.6801 4.53068 38.7949 6.57323 31.5759C8.61579 24.3569 12.2365 18.1447 16.9558 13.7617C21.6752 9.37883 27.2706 7.032 33.0012 7.032C38.7318 7.032 44.3272 9.37883 49.0466 13.7617C53.7659 18.1447 57.3866 24.3569 59.4291 31.5759C61.4717 38.7949 61.8398 46.6801 60.4847 54.1874C59.1296 61.6947 56.1152 68.47 51.8406 73.6161H51.8383Z" fill="black"/>
<path d="M33.3881 25.6413C31.6988 25.6413 30.0474 26.5038 28.6429 28.1196C27.2383 29.7355 26.1435 32.0321 25.4971 34.7192C24.8506 37.4062 24.6815 40.363 25.011 43.2156C25.3406 46.0682 26.1541 48.6884 27.3486 50.745C28.5431 52.8016 30.065 54.2021 31.7218 54.7695C33.3786 55.337 35.0959 55.0457 36.6566 53.9327C38.2173 52.8197 39.5512 50.9349 40.4898 48.5166C41.4283 46.0983 41.9292 43.2552 41.9292 40.3467C41.9292 36.4466 41.0293 32.7062 39.4276 29.9484C37.8258 27.1906 35.6533 25.6413 33.3881 25.6413Z" fill="black"/>
</svg>
