<svg width="340" height="76" viewBox="0 0 340 76" fill="none" xmlns="http://www.w3.org/2000/svg">
<path d="M111.392 72.0611C113.026 73.2607 115.019 74.197 117.231 74.8038C119.443 75.4106 121.82 75.6732 124.195 75.573C131.156 75.3201 137.977 74.1125 144.262 72.0198C153.681 74.9484 164.118 75.9275 174.32 74.8395C184.522 73.7514 194.053 70.6424 201.77 65.8862C209.486 61.13 215.059 54.9288 217.819 48.028C220.578 41.1271 220.407 33.8202 217.325 26.9853C225.126 17.7718 227.746 9.38465 221.315 4.34409C219.445 2.83971 217.073 1.67641 214.405 0.956097C211.737 0.235788 208.855 -0.0195386 206.011 0.212488C200.376 0.808944 195.106 2.51541 190.827 5.1291C181.222 1.74287 170.368 0.444095 159.683 1.40224C148.998 2.36038 138.977 5.53094 130.927 10.5002C122.878 15.4695 117.175 22.0068 114.561 29.2591C111.947 36.5114 112.545 44.142 116.275 51.1552C109.963 56.1544 104.068 66.3595 111.392 72.0611ZM120.324 66.6074C119.014 65.5745 120.324 62.1866 122.527 59.3358C125.192 61.9971 128.334 64.4128 131.876 66.5248C125.743 67.7642 121.694 67.6816 120.324 66.6074ZM206.726 45.247C204.023 52.6662 197.193 59.0397 187.731 62.9716C181.277 65.6342 173.921 67.06 166.413 67.1032C163.933 67.0903 161.46 66.9104 159.029 66.5661C168.371 62.5911 177.18 58.0418 185.349 52.9731C193.574 47.9341 201.145 42.4041 207.976 36.4467C208.224 39.4074 207.802 42.3768 206.726 45.247ZM207.262 8.51702C208.216 8.40798 209.195 8.47246 210.103 8.70417C211.011 8.93589 211.817 9.32692 212.442 9.83913C213.812 10.9133 213.395 13.7228 210.894 17.8131C208.209 14.9653 204.984 12.3806 201.307 10.1283C203.099 9.29607 205.131 8.74608 207.262 8.51702ZM126.041 31.1995C127.346 27.5056 129.698 24.0288 132.96 20.9716C136.221 17.9144 140.326 15.338 145.036 13.3923C151.493 10.7001 158.88 9.27234 166.413 9.2607C173.627 9.22617 180.726 10.51 186.998 12.9832C193.27 15.4563 198.492 19.0316 202.141 23.3495C202.929 24.2225 203.626 25.1338 204.225 26.0763C196.567 33.6967 187.587 40.6347 177.489 46.7344C167.563 53.0684 156.542 58.5226 144.679 62.9716C137.139 59.7579 131.269 54.9629 127.918 49.2807C124.568 43.5984 123.91 37.3237 126.041 31.3648V31.1995Z" fill="#E81010"/>
<path d="M19.968 40.5997L20.016 38.5837C20.016 36.3117 19.824 33.6077 19.44 30.4717H29.808C29.808 35.0157 29.584 39.1757 29.136 42.9517C24.176 43.6557 19.04 44.0077 13.728 44.0077H10.656C7.744 42.7597 5.472 40.9357 3.84 38.5357C2.208 36.1037 1.392 33.5277 1.392 30.8077C1.392 27.1917 2.848 24.1357 5.76 21.6397C8.704 19.1117 12.992 17.8477 18.624 17.8477C21.568 17.8477 24.848 18.2477 28.464 19.0477C27.92 21.2237 27.296 23.1437 26.592 24.8077C24.64 24.9357 22.544 25.0317 20.304 25.0957C20.656 24.0077 20.912 22.9357 21.072 21.8797C20.048 21.6877 18.992 21.5917 17.904 21.5917C16.848 21.5917 15.584 21.7677 14.112 22.1197C13.6 24.2957 13.344 26.2637 13.344 28.0237C13.344 30.6797 13.936 33.1757 15.12 35.5117C16.336 37.8157 17.952 39.5117 19.968 40.5997ZM65.5106 42.5677V42.9517H54.3746C54.2466 41.1277 53.9746 39.2397 53.5586 37.2877C51.5746 39.3037 49.3346 41.1917 46.8386 42.9517H35.6546C35.4306 41.6397 35.3186 39.9117 35.3186 37.7677C35.3186 35.5917 35.6386 33.4157 36.2786 31.2397C38.5826 30.5677 40.7906 29.4317 42.9026 27.8317C45.0466 26.2317 46.5986 24.5037 47.5586 22.6477C46.6946 21.3037 45.7826 20.0717 44.8226 18.9517H60.7586C63.9266 25.8317 65.5106 33.7037 65.5106 42.5677ZM52.6946 33.7837C51.8626 30.9357 50.7746 28.2477 49.4306 25.7197C47.9266 30.1357 47.0626 34.3117 46.8386 38.2477C49.1426 37.0637 51.0946 35.5757 52.6946 33.7837ZM97.9579 21.1597C97.9579 20.2957 97.8299 19.5597 97.5739 18.9517H111.254C112.406 22.0237 113.254 25.7837 113.798 30.2317C114.374 34.6797 114.678 38.9197 114.71 42.9517H103.622C103.398 37.1917 102.454 31.6397 100.79 26.2957C98.0059 31.7357 96.5019 37.2877 96.2779 42.9517H86.8699C86.0379 36.6797 84.4379 31.1117 82.0699 26.2477C80.3419 30.3117 79.4779 34.0877 79.4779 37.5757C79.4779 39.4637 79.7019 41.2557 80.1499 42.9517H68.4859C68.2619 41.6397 68.1499 39.9117 68.1499 37.7677C68.1499 35.5917 68.4699 33.4157 69.1099 31.2397C71.3819 30.5677 73.5579 29.4637 75.6379 27.9277C77.7499 26.3917 79.3019 24.7117 80.2939 22.8877C79.4619 21.5117 78.5819 20.1997 77.6539 18.9517H92.8219C94.0379 22.2477 94.9499 25.8317 95.5579 29.7037C97.1579 26.7277 97.9579 23.8797 97.9579 21.1597ZM136.826 28.5997L141.338 28.8877C141.786 28.8877 142.122 28.8717 142.346 28.8397L140.09 33.0637H139.658C139.05 33.0637 138.186 32.9037 137.066 32.5837C135.946 32.2317 135.146 32.0557 134.666 32.0557C133.354 32.0557 132.314 32.9037 131.546 34.5997C131.418 36.1677 131.322 37.7357 131.258 39.3037C132.922 39.6237 134.234 39.7837 135.194 39.7837H135.626C137.002 39.7837 138.09 39.4797 138.89 38.8717C139.722 38.2637 140.314 37.1757 140.666 35.6077L146.426 35.8477C145.946 38.5997 145.306 40.9677 144.506 42.9517H120.938C120.298 38.6317 119.978 34.3437 119.978 30.0877C119.978 25.8317 120.202 22.1197 120.65 18.9517H146.378C145.802 22.4077 145.29 24.8397 144.842 26.2477C142.954 26.3437 141.226 26.4077 139.658 26.4397C139.914 25.7037 140.042 25.0157 140.042 24.3757C140.042 22.8397 138.89 22.0717 136.586 22.0717C135.722 22.0717 134.762 22.1677 133.706 22.3597C133.002 25.3997 132.458 28.0717 132.074 30.3757C133.354 29.1917 134.938 28.5997 136.826 28.5997ZM153.573 28.3117L156.789 28.3597C161.717 28.3597 165.013 28.0877 166.677 27.5437C165.653 29.2077 164.453 30.7597 163.077 32.1997H161.637C156.805 32.1997 152.821 31.8637 149.685 31.1917L150.405 30.5677C151.781 29.3517 152.837 28.5997 153.573 28.3117ZM198.927 21.1597C198.927 20.2957 198.799 19.5597 198.543 18.9517H212.223C213.375 22.0237 214.223 25.7837 214.767 30.2317C215.343 34.6797 215.647 38.9197 215.679 42.9517H204.591C204.367 37.1917 203.423 31.6397 201.759 26.2957C198.975 31.7357 197.471 37.2877 197.247 42.9517H187.839C187.007 36.6797 185.407 31.1117 183.039 26.2477C181.311 30.3117 180.447 34.0877 180.447 37.5757C180.447 39.4637 180.671 41.2557 181.119 42.9517H169.455C169.231 41.6397 169.119 39.9117 169.119 37.7677C169.119 35.5917 169.439 33.4157 170.079 31.2397C172.351 30.5677 174.527 29.4637 176.607 27.9277C178.719 26.3917 180.271 24.7117 181.263 22.8877C180.431 21.5117 179.551 20.1997 178.623 18.9517H193.791C195.007 22.2477 195.919 25.8317 196.527 29.7037C198.127 26.7277 198.927 23.8797 198.927 21.1597ZM250.995 42.5677V42.9517H239.859C239.731 41.1277 239.459 39.2397 239.043 37.2877C237.059 39.3037 234.819 41.1917 232.323 42.9517H221.139C220.915 41.6397 220.803 39.9117 220.803 37.7677C220.803 35.5917 221.123 33.4157 221.763 31.2397C224.067 30.5677 226.275 29.4317 228.387 27.8317C230.531 26.2317 232.083 24.5037 233.043 22.6477C232.179 21.3037 231.267 20.0717 230.307 18.9517H246.243C249.411 25.8317 250.995 33.7037 250.995 42.5677ZM238.179 33.7837C237.347 30.9357 236.259 28.2477 234.915 25.7197C233.411 30.1357 232.547 34.3117 232.323 38.2477C234.627 37.0637 236.579 35.5757 238.179 33.7837ZM282.914 18.9517C283.106 22.3117 283.202 25.8637 283.202 29.6077C283.202 33.3197 283.042 37.7677 282.722 42.9517H278.114C271.906 39.6237 266.21 35.0957 261.026 29.3677C261.282 31.5117 261.41 33.7197 261.41 35.9917C261.41 38.2317 261.33 40.5517 261.17 42.9517H255.554C256.194 39.0157 256.514 35.3837 256.514 32.0557C256.514 28.6957 256.354 26.0397 256.034 24.0877C254.754 22.1677 253.746 20.4557 253.01 18.9517H266.642C267.986 21.2557 269.81 23.6397 272.114 26.1037C274.45 28.5357 276.674 30.4397 278.786 31.8157C278.786 27.1437 278.258 22.8557 277.202 18.9517H282.914ZM302.587 18.9517V20.2477C302.587 28.6957 302.059 36.2637 301.003 42.9517H289.483C290.091 40.0077 290.395 36.6157 290.395 32.7757C290.395 28.9037 290.139 24.2957 289.627 18.9517H302.587ZM338.37 42.5677V42.9517H327.234C327.106 41.1277 326.834 39.2397 326.418 37.2877C324.434 39.3037 322.194 41.1917 319.698 42.9517H308.514C308.29 41.6397 308.178 39.9117 308.178 37.7677C308.178 35.5917 308.498 33.4157 309.138 31.2397C311.442 30.5677 313.65 29.4317 315.762 27.8317C317.906 26.2317 319.458 24.5037 320.418 22.6477C319.554 21.3037 318.642 20.0717 317.682 18.9517H333.618C336.786 25.8317 338.37 33.7037 338.37 42.5677ZM325.554 33.7837C324.722 30.9357 323.634 28.2477 322.29 25.7197C320.786 30.1357 319.922 34.3117 319.698 38.2477C322.002 37.0637 323.954 35.5757 325.554 33.7837Z" fill="black"/>
</svg>
