<svg width="66" height="71" viewBox="0 0 66 71" fill="none" xmlns="http://www.w3.org/2000/svg">
<path d="M33 0.884171C26.4732 0.884171 20.093 2.93731 14.6662 6.78394C9.23937 10.6306 5.00968 16.0979 2.51199 22.4947C0.0142983 28.8914 -0.639212 35.9302 0.6341 42.7209C1.90741 49.5116 5.05036 55.7493 9.66549 60.6451C14.2806 65.541 20.1607 68.8751 26.562 70.2258C32.9634 71.5766 39.5986 70.8833 45.6286 68.2337C51.6585 65.5841 56.8124 61.0972 60.4385 55.3403C64.0646 49.5834 66 42.8151 66 35.8913C65.99 26.6101 62.51 17.712 56.3235 11.1492C50.137 4.5864 41.7491 0.89476 33 0.884171ZM51.8383 58.2109C51.7913 54.9311 50.5316 51.8021 48.3307 49.4981C46.1297 47.1941 43.1636 45.8996 40.0714 45.8934H25.9286C22.8364 45.8996 19.8703 47.1941 17.6694 49.4981C15.4684 51.8021 14.2087 54.9311 14.1617 58.2109C9.8872 54.1619 6.87281 48.8312 5.51769 42.9244C4.16258 37.0177 4.53068 30.8137 6.57323 25.1338C8.61579 19.4539 12.2365 14.5661 16.9558 11.1177C21.6752 7.66922 27.2706 5.82275 33.0012 5.82275C38.7318 5.82275 44.3272 7.66922 49.0466 11.1177C53.7659 14.5661 57.3866 19.4539 59.4291 25.1338C61.4717 30.8137 61.8398 37.0177 60.4847 42.9244C59.1296 48.8312 56.1152 54.1619 51.8406 58.2109H51.8383Z" fill="black"/>
<path d="M33.3881 20.4644C31.6988 20.4644 30.0474 21.143 28.6429 22.4144C27.2383 23.6857 26.1435 25.4927 25.4971 27.6069C24.8506 29.7211 24.6815 32.0474 25.011 34.2918C25.3406 36.5362 26.1541 38.5978 27.3486 40.2159C28.5431 41.8341 30.065 42.936 31.7218 43.3824C33.3786 43.8289 35.0959 43.5998 36.6566 42.724C38.2173 41.8483 39.5512 40.3653 40.4898 38.4626C41.4283 36.5599 41.9292 34.323 41.9292 32.0346C41.9292 28.966 41.0293 26.0231 39.4276 23.8533C37.8258 21.6834 35.6533 20.4644 33.3881 20.4644Z" fill="black"/>
</svg>
