<svg width="340" height="61" viewBox="0 0 340 61" fill="none" xmlns="http://www.w3.org/2000/svg">
<path d="M111.392 57.2873C113.026 58.2312 115.019 58.9678 117.231 59.4453C119.443 59.9227 121.82 60.1293 124.195 60.0504C131.156 59.8515 137.977 58.9013 144.262 57.2548C153.681 59.5591 164.118 60.3294 174.32 59.4733C184.522 58.6172 194.053 56.1711 201.77 52.4289C209.486 48.6867 215.059 43.8077 217.819 38.3782C220.578 32.9486 220.407 27.1995 217.325 21.8218C225.126 14.5727 227.746 7.97373 221.315 4.00784C219.445 2.8242 217.073 1.90891 214.405 1.34218C211.737 0.775439 208.855 0.574549 206.011 0.757106C200.376 1.2264 195.106 2.56903 190.827 4.62548C181.222 1.9612 170.368 0.939334 159.683 1.6932C148.998 2.44706 138.977 4.94165 130.927 8.85147C122.878 12.7613 117.175 17.9048 114.561 23.6109C111.947 29.317 112.545 35.3207 116.275 40.8386C109.963 44.772 104.068 52.8013 111.392 57.2873ZM120.324 52.9964C119.014 52.1837 120.324 49.5181 122.527 47.2751C125.192 49.369 128.334 51.2697 131.876 52.9314C125.743 53.9066 121.694 53.8415 120.324 52.9964ZM206.726 36.1901C204.023 42.0275 197.193 47.0422 187.731 50.1357C181.277 52.2306 173.921 53.3524 166.413 53.3865C163.933 53.3763 161.46 53.2348 159.029 52.9639C168.371 49.8363 177.18 46.257 185.349 42.2689C193.574 38.3043 201.145 33.9533 207.976 29.266C208.224 31.5955 207.802 33.9318 206.726 36.1901ZM207.262 7.29108C208.216 7.20529 209.195 7.25602 210.103 7.43833C211.011 7.62064 211.817 7.92831 212.442 8.33131C213.812 9.1765 213.395 11.387 210.894 14.6052C208.209 12.3646 204.984 10.3309 201.307 8.55886C203.099 7.90403 205.131 7.4713 207.262 7.29108ZM126.041 25.1376C127.346 22.2312 129.698 19.4957 132.96 17.0903C136.221 14.6849 140.326 12.6578 145.036 11.1269C151.493 9.00875 158.88 7.88536 166.413 7.87621C173.627 7.84904 180.726 8.85917 186.998 10.805C193.27 12.7509 198.492 15.5639 202.141 18.9612C202.929 19.6481 203.626 20.3651 204.225 21.1067C196.567 27.1023 187.587 32.5612 177.489 37.3603C167.563 42.3439 156.542 46.6353 144.679 50.1357C137.139 47.6072 131.269 43.8346 127.918 39.3638C124.568 34.893 123.91 29.956 126.041 25.2676V25.1376Z" fill="#E81010"/>
<path d="M19.968 49.2913L20.016 47.2753C20.016 45.0033 19.824 42.2993 19.44 39.1633H29.808C29.808 43.7073 29.584 47.8673 29.136 51.6433C24.176 52.3473 19.04 52.6993 13.728 52.6993H10.656C7.744 51.4513 5.472 49.6273 3.84 47.2273C2.208 44.7953 1.392 42.2193 1.392 39.4993C1.392 35.8833 2.848 32.8273 5.76 30.3313C8.704 27.8033 12.992 26.5393 18.624 26.5393C21.568 26.5393 24.848 26.9393 28.464 27.7393C27.92 29.9153 27.296 31.8353 26.592 33.4993C24.64 33.6273 22.544 33.7233 20.304 33.7873C20.656 32.6993 20.912 31.6273 21.072 30.5713C20.048 30.3793 18.992 30.2833 17.904 30.2833C16.848 30.2833 15.584 30.4593 14.112 30.8113C13.6 32.9873 13.344 34.9553 13.344 36.7153C13.344 39.3713 13.936 41.8673 15.12 44.2033C16.336 46.5073 17.952 48.2033 19.968 49.2913ZM65.5106 51.2593V51.6433H54.3746C54.2466 49.8193 53.9746 47.9313 53.5586 45.9793C51.5746 47.9953 49.3346 49.8833 46.8386 51.6433H35.6546C35.4306 50.3313 35.3186 48.6033 35.3186 46.4593C35.3186 44.2833 35.6386 42.1073 36.2786 39.9313C38.5826 39.2593 40.7906 38.1233 42.9026 36.5233C45.0466 34.9233 46.5986 33.1953 47.5586 31.3393C46.6946 29.9953 45.7826 28.7633 44.8226 27.6433H60.7586C63.9266 34.5233 65.5106 42.3953 65.5106 51.2593ZM52.6946 42.4753C51.8626 39.6273 50.7746 36.9393 49.4306 34.4113C47.9266 38.8273 47.0626 43.0033 46.8386 46.9393C49.1426 45.7553 51.0946 44.2673 52.6946 42.4753ZM97.9579 29.8513C97.9579 28.9873 97.8299 28.2513 97.5739 27.6433H111.254C112.406 30.7153 113.254 34.4753 113.798 38.9233C114.374 43.3713 114.678 47.6113 114.71 51.6433H103.622C103.398 45.8833 102.454 40.3313 100.79 34.9873C98.0059 40.4273 96.5019 45.9793 96.2779 51.6433H86.8699C86.0379 45.3713 84.4379 39.8033 82.0699 34.9393C80.3419 39.0033 79.4779 42.7793 79.4779 46.2673C79.4779 48.1553 79.7019 49.9473 80.1499 51.6433H68.4859C68.2619 50.3313 68.1499 48.6033 68.1499 46.4593C68.1499 44.2833 68.4699 42.1073 69.1099 39.9313C71.3819 39.2593 73.5579 38.1553 75.6379 36.6193C77.7499 35.0833 79.3019 33.4033 80.2939 31.5793C79.4619 30.2033 78.5819 28.8913 77.6539 27.6433H92.8219C94.0379 30.9393 94.9499 34.5233 95.5579 38.3953C97.1579 35.4193 97.9579 32.5713 97.9579 29.8513ZM136.826 37.2913L141.338 37.5793C141.786 37.5793 142.122 37.5633 142.346 37.5313L140.09 41.7553H139.658C139.05 41.7553 138.186 41.5953 137.066 41.2753C135.946 40.9233 135.146 40.7473 134.666 40.7473C133.354 40.7473 132.314 41.5953 131.546 43.2913C131.418 44.8593 131.322 46.4273 131.258 47.9953C132.922 48.3153 134.234 48.4753 135.194 48.4753H135.626C137.002 48.4753 138.09 48.1713 138.89 47.5633C139.722 46.9553 140.314 45.8673 140.666 44.2993L146.426 44.5393C145.946 47.2913 145.306 49.6593 144.506 51.6433H120.938C120.298 47.3233 119.978 43.0353 119.978 38.7793C119.978 34.5233 120.202 30.8113 120.65 27.6433H146.378C145.802 31.0993 145.29 33.5313 144.842 34.9393C142.954 35.0353 141.226 35.0993 139.658 35.1313C139.914 34.3953 140.042 33.7073 140.042 33.0673C140.042 31.5313 138.89 30.7633 136.586 30.7633C135.722 30.7633 134.762 30.8593 133.706 31.0513C133.002 34.0913 132.458 36.7633 132.074 39.0673C133.354 37.8833 134.938 37.2913 136.826 37.2913ZM153.573 37.0033L156.789 37.0513C161.717 37.0513 165.013 36.7793 166.677 36.2353C165.653 37.8993 164.453 39.4513 163.077 40.8913H161.637C156.805 40.8913 152.821 40.5553 149.685 39.8833L150.405 39.2593C151.781 38.0433 152.837 37.2913 153.573 37.0033ZM198.927 29.8513C198.927 28.9873 198.799 28.2513 198.543 27.6433H212.223C213.375 30.7153 214.223 34.4753 214.767 38.9233C215.343 43.3713 215.647 47.6113 215.679 51.6433H204.591C204.367 45.8833 203.423 40.3313 201.759 34.9873C198.975 40.4273 197.471 45.9793 197.247 51.6433H187.839C187.007 45.3713 185.407 39.8033 183.039 34.9393C181.311 39.0033 180.447 42.7793 180.447 46.2673C180.447 48.1553 180.671 49.9473 181.119 51.6433H169.455C169.231 50.3313 169.119 48.6033 169.119 46.4593C169.119 44.2833 169.439 42.1073 170.079 39.9313C172.351 39.2593 174.527 38.1553 176.607 36.6193C178.719 35.0833 180.271 33.4033 181.263 31.5793C180.431 30.2033 179.551 28.8913 178.623 27.6433H193.791C195.007 30.9393 195.919 34.5233 196.527 38.3953C198.127 35.4193 198.927 32.5713 198.927 29.8513ZM250.995 51.2593V51.6433H239.859C239.731 49.8193 239.459 47.9313 239.043 45.9793C237.059 47.9953 234.819 49.8833 232.323 51.6433H221.139C220.915 50.3313 220.803 48.6033 220.803 46.4593C220.803 44.2833 221.123 42.1073 221.763 39.9313C224.067 39.2593 226.275 38.1233 228.387 36.5233C230.531 34.9233 232.083 33.1953 233.043 31.3393C232.179 29.9953 231.267 28.7633 230.307 27.6433H246.243C249.411 34.5233 250.995 42.3953 250.995 51.2593ZM238.179 42.4753C237.347 39.6273 236.259 36.9393 234.915 34.4113C233.411 38.8273 232.547 43.0033 232.323 46.9393C234.627 45.7553 236.579 44.2673 238.179 42.4753ZM282.914 27.6433C283.106 31.0033 283.202 34.5553 283.202 38.2993C283.202 42.0113 283.042 46.4593 282.722 51.6433H278.114C271.906 48.3153 266.21 43.7873 261.026 38.0593C261.282 40.2033 261.41 42.4113 261.41 44.6833C261.41 46.9233 261.33 49.2433 261.17 51.6433H255.554C256.194 47.7073 256.514 44.0753 256.514 40.7473C256.514 37.3873 256.354 34.7313 256.034 32.7793C254.754 30.8593 253.746 29.1473 253.01 27.6433H266.642C267.986 29.9473 269.81 32.3313 272.114 34.7953C274.45 37.2273 276.674 39.1313 278.786 40.5073C278.786 35.8353 278.258 31.5473 277.202 27.6433H282.914ZM302.587 27.6433V28.9393C302.587 37.3873 302.059 44.9553 301.003 51.6433H289.483C290.091 48.6993 290.395 45.3073 290.395 41.4673C290.395 37.5953 290.139 32.9873 289.627 27.6433H302.587ZM338.37 51.2593V51.6433H327.234C327.106 49.8193 326.834 47.9313 326.418 45.9793C324.434 47.9953 322.194 49.8833 319.698 51.6433H308.514C308.29 50.3313 308.178 48.6033 308.178 46.4593C308.178 44.2833 308.498 42.1073 309.138 39.9313C311.442 39.2593 313.65 38.1233 315.762 36.5233C317.906 34.9233 319.458 33.1953 320.418 31.3393C319.554 29.9953 318.642 28.7633 317.682 27.6433H333.618C336.786 34.5233 338.37 42.3953 338.37 51.2593ZM325.554 42.4753C324.722 39.6273 323.634 36.9393 322.29 34.4113C320.786 38.8273 319.922 43.0033 319.698 46.9393C322.002 45.7553 323.954 44.2673 325.554 42.4753Z" fill="black"/>
</svg>
