<svg width="66" height="53" viewBox="0 0 66 53" fill="none" xmlns="http://www.w3.org/2000/svg">
<path d="M33.0281 0C26.5456 0 20.2087 1.5542 14.8186 4.46605C9.42864 7.37791 5.22765 11.5166 2.7469 16.3589C0.266154 21.2011 -0.382922 26.5294 0.881752 31.6699C2.14643 36.8104 5.26805 41.5322 9.85187 45.2383C14.4357 48.9444 20.2758 51.4683 26.6338 52.4908C32.9917 53.5133 39.5819 52.9885 45.571 50.9828C51.56 48.9771 56.6789 45.5805 60.2804 41.2226C63.8819 36.8647 65.8042 31.7412 65.8042 26.5C65.7943 19.4742 62.3379 12.7385 56.1933 7.77052C50.0488 2.80255 41.7178 0.00801572 33.0281 0ZM51.7386 43.3956C51.6919 40.9128 50.4408 38.5442 48.2547 36.8001C46.0687 35.056 43.1227 34.0761 40.0515 34.0714H26.0046C22.9335 34.0761 19.9875 35.056 17.8014 36.8001C15.6154 38.5442 14.3643 40.9128 14.3176 43.3956C10.0721 40.3306 7.07813 36.2953 5.73221 31.824C4.3863 27.3526 4.75189 22.6563 6.78059 18.3567C8.80929 14.0571 12.4054 10.3571 17.0927 7.74664C21.7801 5.1362 27.3375 3.73844 33.0293 3.73844C38.721 3.73844 44.2784 5.1362 48.9658 7.74664C53.6531 10.3571 57.2492 14.0571 59.2779 18.3567C61.3066 22.6563 61.6722 27.3526 60.3263 31.824C58.9804 36.2953 55.9864 40.3306 51.7409 43.3956H51.7386Z" fill="black"/>
<path d="M33.4134 14.822C31.7356 14.822 30.0954 15.3357 28.7004 16.2981C27.3053 17.2605 26.218 18.6284 25.5759 20.2288C24.9339 21.8292 24.7659 23.5902 25.0932 25.2892C25.4205 26.9882 26.2285 28.5488 27.4149 29.7737C28.6013 30.9986 30.1128 31.8327 31.7584 32.1707C33.404 32.5086 35.1097 32.3352 36.6598 31.6723C38.2099 31.0094 39.5348 29.8868 40.467 28.4465C41.3991 27.0061 41.8966 25.3128 41.8966 23.5805C41.8966 21.2576 41.0029 19.0299 39.412 17.3873C37.821 15.7448 35.6633 14.822 33.4134 14.822Z" fill="black"/>
</svg>
