<svg width="341" height="43" viewBox="0 0 341 43" fill="none" xmlns="http://www.w3.org/2000/svg">
<path d="M111.199 40.0703C112.832 40.7386 114.826 41.2601 117.038 41.5981C119.25 41.9362 121.627 42.0824 124.001 42.0266C130.963 41.8858 137.783 41.213 144.068 40.0473C153.487 41.6787 163.925 42.2241 174.126 41.618C184.328 41.0119 193.86 39.28 201.576 36.6305C209.293 33.981 214.866 30.5266 217.625 26.6824C220.384 22.8382 220.213 18.7678 217.132 14.9604C224.932 9.82792 227.552 5.15577 221.121 2.34787C219.252 1.50984 216.879 0.861812 214.211 0.460557C211.543 0.0593018 208.661 -0.0829307 205.818 0.0463218C200.182 0.378584 194.912 1.32919 190.634 2.78517C181.028 0.898836 170.175 0.175341 159.489 0.709083C148.804 1.24283 138.783 3.00902 130.734 5.77722C122.685 8.54542 116.981 12.1871 114.367 16.227C111.754 20.267 112.351 24.5177 116.082 28.4245C109.77 31.2093 103.874 36.8942 111.199 40.0703ZM120.131 37.0323C118.821 36.4569 120.131 34.5696 122.334 32.9815C124.999 34.4641 128.14 35.8098 131.683 36.9862C125.549 37.6767 121.5 37.6307 120.131 37.0323ZM206.532 25.1332C203.83 29.2662 196.999 32.8166 187.537 35.0069C181.084 36.4901 173.727 37.2844 166.22 37.3085C163.739 37.3013 161.266 37.2011 158.836 37.0093C168.178 34.7949 176.986 32.2607 185.155 29.4371C193.38 26.6301 200.951 23.5496 207.783 20.2309C208.03 21.8802 207.608 23.5344 206.532 25.1332ZM207.068 4.67244C208.023 4.6117 209.002 4.64762 209.91 4.7767C210.818 4.90578 211.624 5.12361 212.249 5.40894C213.618 6.00734 213.202 7.5724 210.701 9.85093C208.015 8.26452 204.791 6.82469 201.114 5.57005C202.905 5.10642 204.938 4.80004 207.068 4.67244ZM125.847 17.308C127.153 15.2502 129.505 13.3134 132.766 11.6104C136.027 9.90737 140.132 8.47214 144.842 7.38827C151.299 5.88857 158.687 5.0932 166.22 5.08672C173.433 5.06749 180.533 5.78267 186.804 7.16036C193.076 8.53806 198.299 10.5297 201.947 12.935C202.736 13.4213 203.432 13.929 204.031 14.454C196.373 18.699 187.394 22.5639 177.295 25.9618C167.37 29.4902 156.348 32.5285 144.485 35.0069C136.946 33.2167 131.076 30.5456 127.725 27.3802C124.374 24.2149 123.716 20.7195 125.847 17.4V17.308Z" fill="#E81010"/>
<path d="M20.8298 38.2913L20.8778 36.2753C20.8778 34.0033 20.6858 31.2993 20.3018 28.1633H30.6698C30.6698 32.7073 30.4458 36.8673 29.9978 40.6433C25.0378 41.3473 19.9018 41.6993 14.5898 41.6993H11.5178C8.60582 40.4513 6.33382 38.6273 4.70182 36.2273C3.06982 33.7953 2.25382 31.2193 2.25382 28.4993C2.25382 24.8833 3.70982 21.8273 6.62182 19.3313C9.56582 16.8033 13.8538 15.5393 19.4858 15.5393C22.4298 15.5393 25.7098 15.9393 29.3258 16.7393C28.7818 18.9153 28.1578 20.8353 27.4538 22.4993C25.5018 22.6273 23.4058 22.7233 21.1658 22.7873C21.5178 21.6993 21.7738 20.6273 21.9338 19.5713C20.9098 19.3793 19.8538 19.2833 18.7658 19.2833C17.7098 19.2833 16.4458 19.4593 14.9738 19.8113C14.4618 21.9873 14.2058 23.9553 14.2058 25.7153C14.2058 28.3713 14.7978 30.8673 15.9818 33.2033C17.1978 35.5073 18.8138 37.2033 20.8298 38.2913ZM66.3724 40.2593V40.6433H55.2364C55.1084 38.8193 54.8364 36.9313 54.4204 34.9793C52.4364 36.9953 50.1964 38.8833 47.7004 40.6433H36.5164C36.2924 39.3313 36.1804 37.6033 36.1804 35.4593C36.1804 33.2833 36.5004 31.1073 37.1404 28.9313C39.4444 28.2593 41.6524 27.1233 43.7644 25.5233C45.9084 23.9233 47.4604 22.1953 48.4204 20.3393C47.5564 18.9953 46.6444 17.7633 45.6844 16.6433H61.6204C64.7884 23.5233 66.3724 31.3953 66.3724 40.2593ZM53.5564 31.4753C52.7244 28.6273 51.6364 25.9393 50.2924 23.4113C48.7884 27.8273 47.9244 32.0033 47.7004 35.9393C50.0044 34.7553 51.9564 33.2673 53.5564 31.4753ZM98.8197 18.8513C98.8197 17.9873 98.6917 17.2513 98.4357 16.6433H112.116C113.268 19.7153 114.116 23.4753 114.66 27.9233C115.236 32.3713 115.54 36.6113 115.572 40.6433H104.484C104.26 34.8833 103.316 29.3313 101.652 23.9873C98.8677 29.4273 97.3637 34.9793 97.1397 40.6433H87.7317C86.8997 34.3713 85.2997 28.8033 82.9317 23.9393C81.2037 28.0033 80.3397 31.7793 80.3397 35.2673C80.3397 37.1553 80.5637 38.9473 81.0117 40.6433H69.3477C69.1237 39.3313 69.0117 37.6033 69.0117 35.4593C69.0117 33.2833 69.3317 31.1073 69.9717 28.9313C72.2437 28.2593 74.4197 27.1553 76.4997 25.6193C78.6117 24.0833 80.1637 22.4033 81.1557 20.5793C80.3237 19.2033 79.4437 17.8913 78.5157 16.6433H93.6837C94.8997 19.9393 95.8117 23.5233 96.4197 27.3953C98.0197 24.4193 98.8197 21.5713 98.8197 18.8513ZM137.688 26.2913L142.2 26.5793C142.648 26.5793 142.984 26.5633 143.208 26.5313L140.952 30.7553H140.52C139.912 30.7553 139.048 30.5953 137.928 30.2753C136.808 29.9233 136.008 29.7473 135.528 29.7473C134.216 29.7473 133.176 30.5953 132.408 32.2913C132.28 33.8593 132.184 35.4273 132.12 36.9953C133.784 37.3153 135.096 37.4753 136.056 37.4753H136.488C137.864 37.4753 138.952 37.1713 139.752 36.5633C140.584 35.9553 141.176 34.8673 141.528 33.2993L147.288 33.5393C146.808 36.2913 146.168 38.6593 145.368 40.6433H121.8C121.16 36.3233 120.84 32.0353 120.84 27.7793C120.84 23.5233 121.064 19.8113 121.512 16.6433H147.24C146.664 20.0993 146.152 22.5313 145.704 23.9393C143.816 24.0353 142.088 24.0993 140.52 24.1313C140.776 23.3953 140.904 22.7073 140.904 22.0673C140.904 20.5313 139.752 19.7633 137.448 19.7633C136.584 19.7633 135.624 19.8593 134.568 20.0513C133.864 23.0913 133.32 25.7633 132.936 28.0673C134.216 26.8833 135.8 26.2913 137.688 26.2913ZM154.435 26.0033L157.651 26.0513C162.579 26.0513 165.875 25.7793 167.539 25.2353C166.515 26.8993 165.315 28.4513 163.939 29.8913H162.499C157.667 29.8913 153.683 29.5553 150.547 28.8833L151.267 28.2593C152.643 27.0433 153.699 26.2913 154.435 26.0033ZM199.788 18.8513C199.788 17.9873 199.66 17.2513 199.404 16.6433H213.084C214.236 19.7153 215.084 23.4753 215.628 27.9233C216.204 32.3713 216.508 36.6113 216.54 40.6433H205.452C205.228 34.8833 204.284 29.3313 202.62 23.9873C199.836 29.4273 198.332 34.9793 198.108 40.6433H188.7C187.868 34.3713 186.268 28.8033 183.9 23.9393C182.172 28.0033 181.308 31.7793 181.308 35.2673C181.308 37.1553 181.532 38.9473 181.98 40.6433H170.316C170.092 39.3313 169.98 37.6033 169.98 35.4593C169.98 33.2833 170.3 31.1073 170.94 28.9313C173.212 28.2593 175.388 27.1553 177.468 25.6193C179.58 24.0833 181.132 22.4033 182.124 20.5793C181.292 19.2033 180.412 17.8913 179.484 16.6433H194.652C195.868 19.9393 196.78 23.5233 197.388 27.3953C198.988 24.4193 199.788 21.5713 199.788 18.8513ZM251.857 40.2593V40.6433H240.721C240.593 38.8193 240.321 36.9313 239.905 34.9793C237.921 36.9953 235.681 38.8833 233.185 40.6433H222.001C221.777 39.3313 221.665 37.6033 221.665 35.4593C221.665 33.2833 221.985 31.1073 222.625 28.9313C224.929 28.2593 227.137 27.1233 229.249 25.5233C231.393 23.9233 232.945 22.1953 233.905 20.3393C233.041 18.9953 232.129 17.7633 231.169 16.6433H247.105C250.273 23.5233 251.857 31.3953 251.857 40.2593ZM239.041 31.4753C238.209 28.6273 237.121 25.9393 235.777 23.4113C234.273 27.8273 233.409 32.0033 233.185 35.9393C235.489 34.7553 237.441 33.2673 239.041 31.4753ZM283.776 16.6433C283.968 20.0033 284.064 23.5553 284.064 27.2993C284.064 31.0113 283.904 35.4593 283.584 40.6433H278.976C272.768 37.3153 267.072 32.7873 261.888 27.0593C262.144 29.2033 262.272 31.4113 262.272 33.6833C262.272 35.9233 262.192 38.2433 262.032 40.6433H256.416C257.056 36.7073 257.376 33.0753 257.376 29.7473C257.376 26.3873 257.216 23.7313 256.896 21.7793C255.616 19.8593 254.608 18.1473 253.872 16.6433H267.504C268.848 18.9473 270.672 21.3313 272.976 23.7953C275.312 26.2273 277.536 28.1313 279.648 29.5073C279.648 24.8353 279.12 20.5473 278.064 16.6433H283.776ZM303.449 16.6433V17.9393C303.449 26.3873 302.921 33.9553 301.865 40.6433H290.345C290.953 37.6993 291.257 34.3073 291.257 30.4673C291.257 26.5953 291.001 21.9873 290.489 16.6433H303.449ZM339.232 40.2593V40.6433H328.096C327.968 38.8193 327.696 36.9313 327.28 34.9793C325.296 36.9953 323.056 38.8833 320.56 40.6433H309.376C309.152 39.3313 309.04 37.6033 309.04 35.4593C309.04 33.2833 309.36 31.1073 310 28.9313C312.304 28.2593 314.512 27.1233 316.624 25.5233C318.768 23.9233 320.32 22.1953 321.28 20.3393C320.416 18.9953 319.504 17.7633 318.544 16.6433H334.48C337.648 23.5233 339.232 31.3953 339.232 40.2593ZM326.416 31.4753C325.584 28.6273 324.496 25.9393 323.152 23.4113C321.648 27.8273 320.784 32.0033 320.56 35.9393C322.864 34.7553 324.816 33.2673 326.416 31.4753Z" fill="black"/>
</svg>
